<mxfile host="Electron" agent="Mozilla/5.0 (Windows NT 10.0; Win64; x64) AppleWebKit/537.36 (KHTML, like Gecko) draw.io/26.0.16 Chrome/132.0.6834.196 Electron/34.2.0 Safari/537.36" version="26.0.16">
  <diagram name="Page-1" id="Q0UnTLUt3HEQUrJSPCft">
    <mxGraphModel dx="1900" dy="621" grid="1" gridSize="10" guides="1" tooltips="1" connect="1" arrows="1" fold="1" page="1" pageScale="1" pageWidth="850" pageHeight="1100" math="0" shadow="0">
      <root>
        <mxCell id="0" />
        <mxCell id="1" parent="0" />
        <mxCell id="jy02yq-Ifhh5M2hm2UJ--1" value="" style="rounded=0;whiteSpace=wrap;html=1;fillColor=none;dashed=1;" parent="1" vertex="1">
          <mxGeometry x="45" y="120" width="150" height="410" as="geometry" />
        </mxCell>
        <mxCell id="jy02yq-Ifhh5M2hm2UJ--2" value="&lt;font style=&quot;font-size: 17px;&quot;&gt;&lt;b&gt;Source System&lt;/b&gt;&lt;/font&gt;" style="rounded=1;whiteSpace=wrap;html=1;strokeColor=none;" parent="1" vertex="1">
          <mxGeometry x="55" y="100" width="130" height="40" as="geometry" />
        </mxCell>
        <mxCell id="jy02yq-Ifhh5M2hm2UJ--17" style="edgeStyle=orthogonalEdgeStyle;rounded=0;orthogonalLoop=1;jettySize=auto;html=1;entryX=0;entryY=0.5;entryDx=0;entryDy=0;exitX=0;exitY=0.5;exitDx=0;exitDy=0;" parent="1" source="jy02yq-Ifhh5M2hm2UJ--9" target="jy02yq-Ifhh5M2hm2UJ--9" edge="1">
          <mxGeometry relative="1" as="geometry" />
        </mxCell>
        <mxCell id="jy02yq-Ifhh5M2hm2UJ--19" style="edgeStyle=orthogonalEdgeStyle;rounded=0;orthogonalLoop=1;jettySize=auto;html=1;entryX=0;entryY=0.5;entryDx=0;entryDy=0;" parent="1" source="jy02yq-Ifhh5M2hm2UJ--3" target="jy02yq-Ifhh5M2hm2UJ--9" edge="1">
          <mxGeometry relative="1" as="geometry" />
        </mxCell>
        <mxCell id="jy02yq-Ifhh5M2hm2UJ--20" style="edgeStyle=orthogonalEdgeStyle;rounded=0;orthogonalLoop=1;jettySize=auto;html=1;entryX=0;entryY=0.5;entryDx=0;entryDy=0;" parent="1" source="jy02yq-Ifhh5M2hm2UJ--3" target="jy02yq-Ifhh5M2hm2UJ--10" edge="1">
          <mxGeometry relative="1" as="geometry" />
        </mxCell>
        <mxCell id="jy02yq-Ifhh5M2hm2UJ--21" style="edgeStyle=orthogonalEdgeStyle;rounded=0;orthogonalLoop=1;jettySize=auto;html=1;entryX=0;entryY=0.5;entryDx=0;entryDy=0;" parent="1" source="jy02yq-Ifhh5M2hm2UJ--3" target="jy02yq-Ifhh5M2hm2UJ--11" edge="1">
          <mxGeometry relative="1" as="geometry" />
        </mxCell>
        <mxCell id="jy02yq-Ifhh5M2hm2UJ--3" value="&lt;b&gt;&lt;font style=&quot;font-size: 14px;&quot;&gt;CRM&lt;/font&gt;&lt;/b&gt;" style="image;aspect=fixed;html=1;points=[];align=center;fontSize=12;image=img/lib/azure2/general/Folder_Blank.svg;" parent="1" vertex="1">
          <mxGeometry x="85" y="203.59" width="70" height="56.82" as="geometry" />
        </mxCell>
        <mxCell id="jy02yq-Ifhh5M2hm2UJ--22" style="edgeStyle=orthogonalEdgeStyle;rounded=0;orthogonalLoop=1;jettySize=auto;html=1;entryX=0;entryY=0.5;entryDx=0;entryDy=0;" parent="1" source="jy02yq-Ifhh5M2hm2UJ--4" target="jy02yq-Ifhh5M2hm2UJ--12" edge="1">
          <mxGeometry relative="1" as="geometry" />
        </mxCell>
        <mxCell id="jy02yq-Ifhh5M2hm2UJ--23" style="edgeStyle=orthogonalEdgeStyle;rounded=0;orthogonalLoop=1;jettySize=auto;html=1;entryX=0;entryY=0.5;entryDx=0;entryDy=0;" parent="1" source="jy02yq-Ifhh5M2hm2UJ--4" target="jy02yq-Ifhh5M2hm2UJ--13" edge="1">
          <mxGeometry relative="1" as="geometry" />
        </mxCell>
        <mxCell id="jy02yq-Ifhh5M2hm2UJ--24" style="edgeStyle=orthogonalEdgeStyle;rounded=0;orthogonalLoop=1;jettySize=auto;html=1;entryX=0;entryY=0.5;entryDx=0;entryDy=0;" parent="1" source="jy02yq-Ifhh5M2hm2UJ--4" target="jy02yq-Ifhh5M2hm2UJ--16" edge="1">
          <mxGeometry relative="1" as="geometry" />
        </mxCell>
        <mxCell id="jy02yq-Ifhh5M2hm2UJ--4" value="&lt;b&gt;&lt;font style=&quot;font-size: 14px;&quot;&gt;ERP&lt;/font&gt;&lt;/b&gt;&lt;div&gt;&lt;b&gt;&lt;font style=&quot;font-size: 14px;&quot;&gt;&lt;br&gt;&lt;/font&gt;&lt;/b&gt;&lt;/div&gt;" style="image;aspect=fixed;html=1;points=[];align=center;fontSize=12;image=img/lib/azure2/general/Folder_Blank.svg;" parent="1" vertex="1">
          <mxGeometry x="85.5" y="370" width="69" height="56.00000000000001" as="geometry" />
        </mxCell>
        <mxCell id="jy02yq-Ifhh5M2hm2UJ--7" value="" style="rounded=0;whiteSpace=wrap;html=1;fillColor=#ffe6cc;fillStyle=hatch;dashed=1;strokeColor=#d79b00;" parent="1" vertex="1">
          <mxGeometry x="265" y="150" width="140" height="380" as="geometry" />
        </mxCell>
        <mxCell id="jy02yq-Ifhh5M2hm2UJ--8" value="&lt;font style=&quot;font-size: 17px;&quot;&gt;&lt;b&gt;Bronze Layer&lt;/b&gt;&lt;/font&gt;" style="rounded=1;whiteSpace=wrap;html=1;strokeColor=#d79b00;fillColor=#ffe6cc;" parent="1" vertex="1">
          <mxGeometry x="265" y="110" width="140" height="40" as="geometry" />
        </mxCell>
        <mxCell id="Q3tXD3hVaHczzRFPoAz1-11" style="edgeStyle=orthogonalEdgeStyle;rounded=0;orthogonalLoop=1;jettySize=auto;html=1;entryX=0;entryY=0.5;entryDx=0;entryDy=0;" edge="1" parent="1" source="jy02yq-Ifhh5M2hm2UJ--9" target="Q3tXD3hVaHczzRFPoAz1-4">
          <mxGeometry relative="1" as="geometry" />
        </mxCell>
        <mxCell id="jy02yq-Ifhh5M2hm2UJ--9" value="&lt;font style=&quot;font-size: 15px;&quot;&gt;crm_cust_info&lt;/font&gt;" style="rounded=1;whiteSpace=wrap;html=1;strokeColor=#d79b00;fillColor=#ffe6cc;" parent="1" vertex="1">
          <mxGeometry x="265" y="170" width="140" height="40" as="geometry" />
        </mxCell>
        <mxCell id="Q3tXD3hVaHczzRFPoAz1-12" style="edgeStyle=orthogonalEdgeStyle;rounded=0;orthogonalLoop=1;jettySize=auto;html=1;entryX=0;entryY=0.5;entryDx=0;entryDy=0;" edge="1" parent="1" source="jy02yq-Ifhh5M2hm2UJ--10" target="Q3tXD3hVaHczzRFPoAz1-5">
          <mxGeometry relative="1" as="geometry" />
        </mxCell>
        <mxCell id="jy02yq-Ifhh5M2hm2UJ--10" value="&lt;font style=&quot;font-size: 15px;&quot;&gt;crm_prd_info&lt;/font&gt;" style="rounded=1;whiteSpace=wrap;html=1;strokeColor=#d79b00;fillColor=#ffe6cc;" parent="1" vertex="1">
          <mxGeometry x="265" y="220" width="140" height="40" as="geometry" />
        </mxCell>
        <mxCell id="Q3tXD3hVaHczzRFPoAz1-13" style="edgeStyle=orthogonalEdgeStyle;rounded=0;orthogonalLoop=1;jettySize=auto;html=1;entryX=0;entryY=0.5;entryDx=0;entryDy=0;" edge="1" parent="1" source="jy02yq-Ifhh5M2hm2UJ--11" target="Q3tXD3hVaHczzRFPoAz1-6">
          <mxGeometry relative="1" as="geometry" />
        </mxCell>
        <mxCell id="jy02yq-Ifhh5M2hm2UJ--11" value="&lt;font style=&quot;font-size: 15px;&quot;&gt;crm_sales_details&lt;/font&gt;" style="rounded=1;whiteSpace=wrap;html=1;strokeColor=#d79b00;fillColor=#ffe6cc;" parent="1" vertex="1">
          <mxGeometry x="265" y="270" width="140" height="40" as="geometry" />
        </mxCell>
        <mxCell id="Q3tXD3hVaHczzRFPoAz1-14" style="edgeStyle=orthogonalEdgeStyle;rounded=0;orthogonalLoop=1;jettySize=auto;html=1;entryX=0;entryY=0.5;entryDx=0;entryDy=0;" edge="1" parent="1" source="jy02yq-Ifhh5M2hm2UJ--12" target="Q3tXD3hVaHczzRFPoAz1-7">
          <mxGeometry relative="1" as="geometry" />
        </mxCell>
        <mxCell id="jy02yq-Ifhh5M2hm2UJ--12" value="&lt;font style=&quot;font-size: 15px;&quot;&gt;erp_cust_az12&lt;/font&gt;" style="rounded=1;whiteSpace=wrap;html=1;strokeColor=#d79b00;fillColor=#ffe6cc;" parent="1" vertex="1">
          <mxGeometry x="265" y="346" width="140" height="40" as="geometry" />
        </mxCell>
        <mxCell id="Q3tXD3hVaHczzRFPoAz1-15" style="edgeStyle=orthogonalEdgeStyle;rounded=0;orthogonalLoop=1;jettySize=auto;html=1;entryX=0;entryY=0.5;entryDx=0;entryDy=0;" edge="1" parent="1" source="jy02yq-Ifhh5M2hm2UJ--13" target="Q3tXD3hVaHczzRFPoAz1-8">
          <mxGeometry relative="1" as="geometry" />
        </mxCell>
        <mxCell id="jy02yq-Ifhh5M2hm2UJ--13" value="&lt;font style=&quot;font-size: 15px;&quot;&gt;erp_loc_a101&lt;/font&gt;" style="rounded=1;whiteSpace=wrap;html=1;strokeColor=#d79b00;fillColor=#ffe6cc;" parent="1" vertex="1">
          <mxGeometry x="265" y="400" width="140" height="40" as="geometry" />
        </mxCell>
        <mxCell id="Q3tXD3hVaHczzRFPoAz1-16" style="edgeStyle=orthogonalEdgeStyle;rounded=0;orthogonalLoop=1;jettySize=auto;html=1;entryX=0;entryY=0.5;entryDx=0;entryDy=0;" edge="1" parent="1" source="jy02yq-Ifhh5M2hm2UJ--16" target="Q3tXD3hVaHczzRFPoAz1-9">
          <mxGeometry relative="1" as="geometry" />
        </mxCell>
        <mxCell id="jy02yq-Ifhh5M2hm2UJ--16" value="&lt;font style=&quot;font-size: 15px;&quot;&gt;erp_px_cat_g1v2&lt;/font&gt;" style="rounded=1;whiteSpace=wrap;html=1;strokeColor=#d79b00;fillColor=#ffe6cc;" parent="1" vertex="1">
          <mxGeometry x="265" y="460" width="140" height="40" as="geometry" />
        </mxCell>
        <mxCell id="Q3tXD3hVaHczzRFPoAz1-1" style="edgeStyle=orthogonalEdgeStyle;rounded=0;orthogonalLoop=1;jettySize=auto;html=1;entryX=0;entryY=0.5;entryDx=0;entryDy=0;exitX=0;exitY=0.5;exitDx=0;exitDy=0;fillColor=#f5f5f5;strokeColor=#666666;" edge="1" parent="1" source="Q3tXD3hVaHczzRFPoAz1-4" target="Q3tXD3hVaHczzRFPoAz1-4">
          <mxGeometry relative="1" as="geometry" />
        </mxCell>
        <mxCell id="Q3tXD3hVaHczzRFPoAz1-2" value="" style="rounded=0;whiteSpace=wrap;html=1;fillColor=#f5f5f5;fillStyle=hatch;dashed=1;strokeColor=#666666;fontColor=#333333;" vertex="1" parent="1">
          <mxGeometry x="465" y="150" width="140" height="380" as="geometry" />
        </mxCell>
        <mxCell id="Q3tXD3hVaHczzRFPoAz1-3" value="&lt;font style=&quot;font-size: 17px;&quot;&gt;&lt;b&gt;Silver Layer&lt;/b&gt;&lt;/font&gt;" style="rounded=1;whiteSpace=wrap;html=1;strokeColor=#666666;fillColor=#f5f5f5;fontColor=#333333;" vertex="1" parent="1">
          <mxGeometry x="465" y="110" width="140" height="40" as="geometry" />
        </mxCell>
        <mxCell id="Q3tXD3hVaHczzRFPoAz1-4" value="&lt;font style=&quot;font-size: 15px;&quot;&gt;crm_cust_info&lt;/font&gt;" style="rounded=1;whiteSpace=wrap;html=1;strokeColor=#666666;fillColor=#f5f5f5;fontColor=#333333;" vertex="1" parent="1">
          <mxGeometry x="465" y="170" width="140" height="40" as="geometry" />
        </mxCell>
        <mxCell id="Q3tXD3hVaHczzRFPoAz1-5" value="&lt;font style=&quot;font-size: 15px;&quot;&gt;crm_prd_info&lt;/font&gt;" style="rounded=1;whiteSpace=wrap;html=1;strokeColor=#666666;fillColor=#f5f5f5;fontColor=#333333;" vertex="1" parent="1">
          <mxGeometry x="465" y="220" width="140" height="40" as="geometry" />
        </mxCell>
        <mxCell id="Q3tXD3hVaHczzRFPoAz1-6" value="&lt;font style=&quot;font-size: 15px;&quot;&gt;crm_sales_details&lt;/font&gt;" style="rounded=1;whiteSpace=wrap;html=1;strokeColor=#666666;fillColor=#f5f5f5;fontColor=#333333;" vertex="1" parent="1">
          <mxGeometry x="465" y="270" width="140" height="40" as="geometry" />
        </mxCell>
        <mxCell id="Q3tXD3hVaHczzRFPoAz1-7" value="&lt;font style=&quot;font-size: 15px;&quot;&gt;erp_cust_az12&lt;/font&gt;" style="rounded=1;whiteSpace=wrap;html=1;strokeColor=#666666;fillColor=#f5f5f5;fontColor=#333333;" vertex="1" parent="1">
          <mxGeometry x="465" y="346" width="140" height="40" as="geometry" />
        </mxCell>
        <mxCell id="Q3tXD3hVaHczzRFPoAz1-8" value="&lt;font style=&quot;font-size: 15px;&quot;&gt;erp_loc_a101&lt;/font&gt;" style="rounded=1;whiteSpace=wrap;html=1;strokeColor=#666666;fillColor=#f5f5f5;fontColor=#333333;" vertex="1" parent="1">
          <mxGeometry x="465" y="400" width="140" height="40" as="geometry" />
        </mxCell>
        <mxCell id="Q3tXD3hVaHczzRFPoAz1-9" value="&lt;font style=&quot;font-size: 15px;&quot;&gt;erp_px_cat_g1v2&lt;/font&gt;" style="rounded=1;whiteSpace=wrap;html=1;strokeColor=#666666;fillColor=#f5f5f5;fontColor=#333333;" vertex="1" parent="1">
          <mxGeometry x="465" y="460" width="140" height="40" as="geometry" />
        </mxCell>
        <mxCell id="Q3tXD3hVaHczzRFPoAz1-18" value="" style="rounded=0;whiteSpace=wrap;html=1;fillColor=#fff2cc;fillStyle=hatch;dashed=1;strokeColor=#d6b656;" vertex="1" parent="1">
          <mxGeometry x="665" y="150" width="140" height="380" as="geometry" />
        </mxCell>
        <mxCell id="Q3tXD3hVaHczzRFPoAz1-19" value="&lt;font style=&quot;font-size: 17px;&quot;&gt;&lt;b&gt;Gold Layer&lt;/b&gt;&lt;/font&gt;" style="rounded=1;whiteSpace=wrap;html=1;strokeColor=#d6b656;fillColor=#fff2cc;" vertex="1" parent="1">
          <mxGeometry x="665" y="110" width="140" height="40" as="geometry" />
        </mxCell>
        <mxCell id="Q3tXD3hVaHczzRFPoAz1-20" value="&lt;span style=&quot;font-size: 15px;&quot;&gt;dim_customer&lt;/span&gt;" style="rounded=1;whiteSpace=wrap;html=1;strokeColor=#d6b656;fillColor=#fff2cc;" vertex="1" parent="1">
          <mxGeometry x="665" y="220" width="140" height="40" as="geometry" />
        </mxCell>
        <mxCell id="Q3tXD3hVaHczzRFPoAz1-21" value="&lt;font style=&quot;font-size: 15px;&quot;&gt;fact_sales&lt;/font&gt;" style="rounded=1;whiteSpace=wrap;html=1;strokeColor=#d6b656;fillColor=#fff2cc;" vertex="1" parent="1">
          <mxGeometry x="665" y="310" width="140" height="40" as="geometry" />
        </mxCell>
        <mxCell id="Q3tXD3hVaHczzRFPoAz1-22" value="&lt;font style=&quot;font-size: 15px;&quot;&gt;dim_product&lt;/font&gt;" style="rounded=1;whiteSpace=wrap;html=1;strokeColor=#d6b656;fillColor=#fff2cc;" vertex="1" parent="1">
          <mxGeometry x="665" y="410" width="140" height="40" as="geometry" />
        </mxCell>
        <mxCell id="Q3tXD3hVaHczzRFPoAz1-32" value="" style="endArrow=classic;html=1;rounded=0;entryX=0;entryY=0.5;entryDx=0;entryDy=0;jumpStyle=gap;" edge="1" parent="1" target="Q3tXD3hVaHczzRFPoAz1-20">
          <mxGeometry width="50" height="50" relative="1" as="geometry">
            <mxPoint x="605" y="190" as="sourcePoint" />
            <mxPoint x="655" y="140" as="targetPoint" />
            <Array as="points" />
          </mxGeometry>
        </mxCell>
        <mxCell id="Q3tXD3hVaHczzRFPoAz1-33" value="" style="endArrow=classic;html=1;rounded=0;entryX=0;entryY=0.75;entryDx=0;entryDy=0;jumpStyle=gap;" edge="1" parent="1" target="Q3tXD3hVaHczzRFPoAz1-18">
          <mxGeometry width="50" height="50" relative="1" as="geometry">
            <mxPoint x="605" y="240" as="sourcePoint" />
            <mxPoint x="665" y="290" as="targetPoint" />
            <Array as="points" />
          </mxGeometry>
        </mxCell>
        <mxCell id="Q3tXD3hVaHczzRFPoAz1-34" value="" style="endArrow=classic;html=1;rounded=0;entryX=0;entryY=0.5;entryDx=0;entryDy=0;jumpStyle=gap;" edge="1" parent="1" target="Q3tXD3hVaHczzRFPoAz1-21">
          <mxGeometry width="50" height="50" relative="1" as="geometry">
            <mxPoint x="605" y="290" as="sourcePoint" />
            <mxPoint x="665" y="340" as="targetPoint" />
            <Array as="points" />
          </mxGeometry>
        </mxCell>
        <mxCell id="Q3tXD3hVaHczzRFPoAz1-35" value="" style="endArrow=classic;html=1;rounded=0;jumpStyle=gap;" edge="1" parent="1">
          <mxGeometry width="50" height="50" relative="1" as="geometry">
            <mxPoint x="605" y="480" as="sourcePoint" />
            <mxPoint x="665" y="430" as="targetPoint" />
            <Array as="points" />
          </mxGeometry>
        </mxCell>
        <mxCell id="Q3tXD3hVaHczzRFPoAz1-36" value="" style="endArrow=classic;html=1;rounded=0;jumpStyle=gap;" edge="1" parent="1">
          <mxGeometry width="50" height="50" relative="1" as="geometry">
            <mxPoint x="605" y="423" as="sourcePoint" />
            <mxPoint x="665" y="240" as="targetPoint" />
            <Array as="points" />
          </mxGeometry>
        </mxCell>
        <mxCell id="Q3tXD3hVaHczzRFPoAz1-37" value="" style="endArrow=classic;html=1;rounded=0;exitX=1;exitY=0.5;exitDx=0;exitDy=0;jumpStyle=gap;" edge="1" parent="1" source="Q3tXD3hVaHczzRFPoAz1-7">
          <mxGeometry width="50" height="50" relative="1" as="geometry">
            <mxPoint x="605" y="421.5" as="sourcePoint" />
            <mxPoint x="665" y="238.5" as="targetPoint" />
            <Array as="points" />
          </mxGeometry>
        </mxCell>
        <mxCell id="Q3tXD3hVaHczzRFPoAz1-38" value="&lt;b&gt;&lt;font style=&quot;font-size: 25px;&quot;&gt;Data Flow&lt;/font&gt;&lt;/b&gt;" style="text;html=1;align=center;verticalAlign=middle;whiteSpace=wrap;rounded=0;" vertex="1" parent="1">
          <mxGeometry x="-20" y="60" width="200" height="30" as="geometry" />
        </mxCell>
      </root>
    </mxGraphModel>
  </diagram>
</mxfile>
